<?xml version="1.0" encoding="UTF-8"?>
<svg version="1.1" xmlns="http://www.w3.org/2000/svg" width="626" height="626">
<path d="M0 0 C206.58 0 413.16 0 626 0 C626 206.58 626 413.16 626 626 C419.42 626 212.84 626 0 626 C0 419.42 0 212.84 0 0 Z " fill="#797979" transform="translate(0,0)"/>
<path d="M0 0 C84.15 0 168.3 0 255 0 C255 7.59 255 15.18 255 23 C223.82249584 23.04517751 192.64500342 23.08100015 161.46747444 23.10213066 C157.78983967 23.10463219 154.11220498 23.10722082 150.43457031 23.10986328 C149.70239431 23.1103879 148.97021832 23.11091252 148.21585517 23.11145304 C136.34788673 23.12016462 124.4799376 23.13593872 112.61198063 23.15430559 C100.44173863 23.17298372 88.27150676 23.18411229 76.10125101 23.18817699 C68.58662687 23.19092639 61.07205728 23.19962186 53.55744992 23.21583293 C47.80314776 23.22761704 42.04888084 23.22891664 36.29456902 23.22621536 C33.92817155 23.226768 31.56177211 23.23077798 29.19538689 23.23841095 C25.97739908 23.24828629 22.75964922 23.24599614 19.54165649 23.24050903 C18.59419984 23.24633472 17.6467432 23.2521604 16.67057574 23.25816262 C15.81316172 23.25418052 14.95574771 23.25019842 14.07235146 23.24609566 C13.32885905 23.2468551 12.58536664 23.24761454 11.81934416 23.24839699 C10 23 10 23 8 21 C5.63490639 20.69940057 3.25558119 20.50484988 0.875 20.375 C-0.40632813 20.30023438 -1.68765625 20.22546875 -3.0078125 20.1484375 C-4.48894531 20.07496094 -4.48894531 20.07496094 -6 20 C-6 19.67 -6 19.34 -6 19 C-1.38 19 3.24 19 8 19 C8 18.01 8 17.02 8 16 C3.71 16 -0.58 16 -5 16 C-4.67 15.01 -4.34 14.02 -4 13 C2.435 12.505 2.435 12.505 9 12 C9 11.67 9 11.34 9 11 C5.04 10.67 1.08 10.34 -3 10 C-3 9.67 -3 9.34 -3 9 C1.62 9 6.24 9 11 9 C11 8.01 11 7.02 11 6 C6.71 6 2.42 6 -2 6 C-2 5.67 -2 5.34 -2 5 C4.435 4.505 4.435 4.505 11 4 C11 3.67 11 3.34 11 3 C7.04 2.67 3.08 2.34 -1 2 C-0.67 1.34 -0.34 0.68 0 0 Z M7 23 C7.99 23 8.98 23 10 23 C9.67 23.66 9.34 24.32 9 25 C8.34 24.34 7.68 23.68 7 23 Z " fill="#7C7C7C" transform="translate(371,99)"/>
<path d="M0 0 C84.15 0 168.3 0 255 0 C255 2.31 255 4.62 255 7 C224.13712661 7.02284107 193.27425516 7.04052436 162.41137533 7.05106533 C158.76293836 7.05231595 155.1145014 7.05361028 151.46606445 7.05493164 C150.73976448 7.05519395 150.01346452 7.05545626 149.26515546 7.05572652 C137.52425662 7.06007096 125.78336271 7.06795175 114.0424668 7.0771528 C101.984042 7.08652346 89.92561978 7.09206283 77.86719149 7.09408849 C71.09888832 7.09533426 64.33059539 7.09831602 57.56229591 7.10573006 C51.18564383 7.11254106 44.80900744 7.11460664 38.43235207 7.11310768 C36.09799107 7.11338173 33.76362953 7.1153566 31.4292717 7.11920547 C8.77728922 7.15470718 8.77728922 7.15470718 -2 6 C-2 5.67 -2 5.34 -2 5 C4.435 4.505 4.435 4.505 11 4 C11 3.67 11 3.34 11 3 C7.04 2.67 3.08 2.34 -1 2 C-0.67 1.34 -0.34 0.68 0 0 Z " fill="#8F8F8F" transform="translate(371,99)"/>
<path d="M0 0 C77.55 0 155.1 0 235 0 C235.33 0.99 235.66 1.98 236 3 C235.34 3.99 234.68 4.98 234 6 C230.892949 6.29404689 227.98534528 6.39079878 224.87594604 6.36076355 C223.44005589 6.36460846 223.44005589 6.36460846 221.97515786 6.36853105 C218.74743074 6.3734971 215.52016494 6.35692951 212.29248047 6.34057617 C209.98679617 6.33973051 207.68111107 6.34020385 205.37542725 6.34190369 C199.0988162 6.34276744 192.82237576 6.32508025 186.5458045 6.30418181 C179.99279479 6.2854782 173.43978155 6.28366957 166.88674927 6.28010559 C155.88231433 6.27232863 144.87793943 6.25306682 133.87353516 6.22631836 C122.53760086 6.19879265 111.20168361 6.1775518 99.86572266 6.16479492 C99.16729114 6.16400675 98.46885962 6.16321858 97.74926351 6.16240653 C94.24553221 6.15849149 90.74180079 6.15470035 87.2380693 6.15097082 C58.15867197 6.119857 29.07933682 6.06678299 0 6 C0 4.02 0 2.04 0 0 Z " fill="#7F7F7F" transform="translate(0,185)"/>
<path d="M0 0 C78.87 0 157.74 0 239 0 C239.33 1.32 239.66 2.64 240 4 C238.07265739 5.92734261 235.18057392 5.12296152 232.61554426 5.12908131 C231.68852046 5.12616847 230.76149666 5.12325563 229.80638123 5.12025452 C228.34114607 5.12153615 228.34114607 5.12153615 226.8463102 5.12284368 C223.54652911 5.12450145 220.24679795 5.11897228 216.94702148 5.11352539 C214.59222413 5.11324356 212.23742669 5.11340118 209.88262939 5.1139679 C203.46759631 5.11425602 197.05258174 5.10835691 190.63755298 5.10139394 C184.61936854 5.09531949 178.60118191 5.09477212 172.58299495 5.09374207 C160.6595745 5.09155123 148.73616088 5.0848903 136.81274414 5.07543945 C125.22745803 5.06626615 113.64217377 5.05918492 102.05688477 5.05493164 C101.34325555 5.05466892 100.62962633 5.05440619 99.89437198 5.05413551 C96.3144496 5.05283051 92.7345272 5.05156679 89.15460479 5.05032361 C59.43639867 5.03995002 29.71819966 5.02225673 0 5 C0 3.35 0 1.7 0 0 Z " fill="#656565" transform="translate(0,36)"/>
<path d="M0 0 C0.99 0.495 0.99 0.495 2 1 C1.01 1.495 1.01 1.495 0 2 C0 1.34 0 0.68 0 0 Z M-243 2 C-162.81 2 -82.62 2 0 2 C-0.33 2.99 -0.66 3.98 -1 5 C-80.86 5 -160.72 5 -243 5 C-243 4.01 -243 3.02 -243 2 Z " fill="#545454" transform="translate(243,158)"/>
<path d="M0 0 C80.52 0 161.04 0 244 0 C243.67 0.99 243.34 1.98 243 3 C162.81 3 82.62 3 0 3 C0 2.01 0 1.02 0 0 Z " fill="#545454" transform="translate(0,54)"/>
<path d="M0 0 C71.61 0 143.22 0 217 0 C216.34 0.33 215.68 0.66 215 1 C215 1.66 215 2.32 215 3 C144.05 3 73.1 3 0 3 C0 2.01 0 1.02 0 0 Z " fill="#A8A8A8" transform="translate(0,215)"/>
<path d="M0 0 C2.29141286 -0.05384521 4.58318188 -0.09272087 6.875 -0.125 C8.78925781 -0.15980469 8.78925781 -0.15980469 10.7421875 -0.1953125 C14 0 14 0 16 2 C10.72 2 5.44 2 0 2 C0 1.34 0 0.68 0 0 Z M-2 2 C0.77236494 2.08691739 3.54147078 2.19377361 6.3125 2.3125 C7.49102539 2.34633789 7.49102539 2.34633789 8.69335938 2.38085938 C9.45068359 2.41630859 10.20800781 2.45175781 10.98828125 2.48828125 C12.03302612 2.52755737 12.03302612 2.52755737 13.09887695 2.56762695 C15.49350359 3.11223768 16.43272547 4.15829162 18 6 C16.02 6.99 16.02 6.99 14 8 C14 8.66 14 9.32 14 10 C8.72 10 3.44 10 -2 10 C-2.66 8.68 -3.32 7.36 -4 6 C-3.125 3.75 -3.125 3.75 -2 2 Z " fill="#636363" transform="translate(251,68)"/>
<path d="M0 0 C-0.66 1.32 -1.32 2.64 -2 4 C-2.66 4 -3.32 4 -4 4 C-4 4.66 -4 5.32 -4 6 C-8.62 6 -13.24 6 -18 6 C-18.66 3.69 -19.32 1.38 -20 -1 C-17.22964291 -1.22162857 -14.45961005 -1.42779249 -11.6875 -1.625 C-10.90181641 -1.68945312 -10.11613281 -1.75390625 -9.30664062 -1.8203125 C-8.54931641 -1.871875 -7.79199219 -1.9234375 -7.01171875 -1.9765625 C-6.31522217 -2.02893066 -5.61872559 -2.08129883 -4.90112305 -2.13525391 C-3 -2 -3 -2 0 0 Z " fill="#CDCDCD" transform="translate(366,2)"/>
<path d="M0 0 C1.20366211 0.00966797 1.20366211 0.00966797 2.43164062 0.01953125 C3.26501953 0.03628906 4.09839844 0.05304687 4.95703125 0.0703125 C6.22450195 0.08384766 6.22450195 0.08384766 7.51757812 0.09765625 C9.60168368 0.12120547 11.68564342 0.15707603 13.76953125 0.1953125 C13.43953125 1.1853125 13.10953125 2.1753125 12.76953125 3.1953125 C10.96355469 3.28619141 10.96355469 3.28619141 9.12109375 3.37890625 C7.54556048 3.46330982 5.97004029 3.54795791 4.39453125 3.6328125 C3.60046875 3.67212891 2.80640625 3.71144531 1.98828125 3.75195312 C-2.25648096 3.88424654 -2.25648096 3.88424654 -6.23046875 5.1953125 C-6.56046875 4.2053125 -6.89046875 3.2153125 -7.23046875 2.1953125 C-4.12961304 0.12807536 -3.50115194 -0.04966173 0 0 Z " fill="#959595" transform="translate(269.23046875,8.8046875)"/>
<path d="M0 0 C4.95 0 9.9 0 15 0 C15 0.99 15 1.98 15 3 C9.72 3 4.44 3 -1 3 C-0.67 2.01 -0.34 1.02 0 0 Z " fill="#979797" transform="translate(250,75)"/>
<path d="M0 0 C1.670625 0.061875 1.670625 0.061875 3.375 0.125 C3.045 1.115 2.715 2.105 2.375 3.125 C0.395 3.125 -1.585 3.125 -3.625 3.125 C-3.955 3.785 -4.285 4.445 -4.625 5.125 C-4.955 4.135 -5.285 3.145 -5.625 2.125 C-3.625 0.125 -3.625 0.125 0 0 Z " fill="#969696" transform="translate(354.625,20.875)"/>
<path d="M0 0 C0.66 0.33 1.32 0.66 2 1 C2 1.66 2 2.32 2 3 C1.34 3 0.68 3 0 3 C0 3.66 0 4.32 0 5 C-1.65 5 -3.3 5 -5 5 C-5 4.01 -5 3.02 -5 2 C-2.625 0.9375 -2.625 0.9375 0 0 Z " fill="#848484" transform="translate(318,21)"/>
</svg>
